<?xml version="1.0" encoding="UTF-8"?>
<svg id="Layer_2" data-name="Layer 2" xmlns="http://www.w3.org/2000/svg" viewBox="0 0 483.3 604.2">
  <defs>
    <style>
      .cls-1 {
        fill: none;
        stroke: #fff;
        stroke-miterlimit: 10;
      }
    </style>
  </defs>
  <g id="Layer_1-2" data-name="Layer 1">
    <g>
      <path class="cls-1" d="M421.02,463.02c-2.8,4.9-28.7,40.24-33.59,41.29-11.37,2.44-14.25-39.01-38.14-31.85-9.81,2.94-19.12,5.08-27.95,6.52-14.76,16.37-35.3,37.77-49.03,46.34-92.62,57.77-107.26-51.97-107.26-51.97,0,0-13.67,26.36-28.05,40.3-127.1,123.16-212.85-188.95,10.5-189.9v15.86s-49.23,11.43-60.19,72.09c-23.13,127.93,73.02,61.79,73.02,22.86,0-26.13-5.6-217.43-5.6-217.43,0,0,23.56-24.03,28.7-28.93,5.13-4.9,17.73-4.43,17.73,27.06v200.63c0,58.64,66.37,100.3,109.13,64.54-111.43,11.03-133.07-101-7.18-206.4,29.59-24.77,86.75,31.91,70.34,50.04-13.3,14.7-52.14,44.44-52.14,44.44-14.7-4.9-47.24-57.39-58.44-31.14-11.2,26.25,9.8,46.89,29.4,58.09,19.6,11.2,73.14.7,79.44-13.3,6.3-14,34.64-80.14,34.64-80.14l15.08,7.53-36.43,104.45c26.25,6.65,38.84,44.09,36.04,48.99ZM119.66,81.48c-180.02,70.8-40.7-96.38-1.87-11.43,0,0,29.86-33.83,33.13-40.13,3.27-6.3-19.13-38.26-47.13-27.06C13.44,39-62.25,207.91,78.13,150.07c46.43-19.13,55.29-17.5,68.12-5.13,0,0-21.21,33.83-89.35,48.06-21.23,4.43-24.73-16.33-19.6-23.1h-15.4s-15.4,45.49-16.1,60.66c-2.63,56.91,153.22-8.69,178.94-75.12,19.6-50.63-9.33-95.88-65.09-73.95ZM379.73,173.34l36.43-104.45-15.08-7.53s-28.35,66.14-34.64,80.14c-6.3,14-59.84,24.5-79.44,13.3-19.6-11.2-40.59-31.85-29.4-58.09,11.2-26.25,43.74,26.25,58.44,31.14,0,0,38.84-29.75,52.14-44.44,16.41-18.13-40.75-74.81-70.34-50.04-139.44,116.74-97.91,241.65,46.19,198.42,23.9-7.17,26.78,34.28,38.14,31.85,4.9-1.05,30.79-36.39,33.59-41.29s-9.8-42.34-36.04-48.99ZM96.2,260.87c-4.34-4.34-11.37-4.34-15.71,0l-17.32,17.32c-4.34,4.34-4.34,11.37,0,15.71l17.32,17.32c4.34,4.34,11.37,4.34,15.71,0l17.32-17.32c4.34-4.34,4.34-11.37,0-15.71l-17.32-17.32ZM272.6,259.38c-13.38-.77-54.01-4.62-55.22,52.58-.04,2.03.94,3.95,2.61,5.09,3.44,2.35,7.33.25,9.2-3.48,11.76-23.49,30.03-30.61,42.26-37.22,3.19-1.73,6.75-2.46,6.75-6.1v-4.89c0-3.16-2.45-5.8-5.61-5.98Z"/>
      <path class="cls-1" d="M433.28,475.27c-2.8,4.9-28.7,40.24-33.59,41.29-11.37,2.44-14.25-39.01-38.14-31.85-9.81,2.94-19.12,5.08-27.95,6.52-14.76,16.37-35.3,37.77-49.03,46.34-92.62,57.77-107.26-51.97-107.26-51.97,0,0-13.67,26.36-28.05,40.3-127.1,123.16-212.85-188.95,10.5-189.9v15.86s-49.23,11.43-60.19,72.09c-23.13,127.93,73.02,61.79,73.02,22.86,0-26.13-5.6-217.43-5.6-217.43,0,0,23.56-24.03,28.7-28.93,5.13-4.9,17.73-4.43,17.73,27.06v200.63c0,58.64,66.37,100.3,109.13,64.54-111.43,11.03-133.07-101-7.18-206.4,29.59-24.77,86.75,31.91,70.34,50.04-13.3,14.7-52.14,44.44-52.14,44.44-14.7-4.9-47.24-57.39-58.44-31.14-11.2,26.25,9.8,46.89,29.4,58.09,19.6,11.2,73.14.7,79.44-13.3,6.3-14,34.64-80.14,34.64-80.14l15.08,7.53-36.43,104.45c26.25,6.65,38.84,44.09,36.04,48.99ZM131.92,93.73c-180.02,70.8-40.7-96.38-1.87-11.43,0,0,29.86-33.83,33.13-40.13,3.27-6.3-19.13-38.26-47.13-27.06C25.7,51.26-49.99,220.17,90.39,162.32c46.43-19.13,55.29-17.5,68.12-5.13,0,0-21.21,33.83-89.35,48.06-21.23,4.43-24.73-16.33-19.6-23.1h-15.4s-15.4,45.49-16.1,60.66c-2.63,56.91,153.22-8.69,178.94-75.12,19.6-50.63-9.33-95.88-65.09-73.95ZM391.98,185.59l36.43-104.45-15.08-7.53s-28.35,66.14-34.64,80.14c-6.3,14-59.84,24.5-79.44,13.3-19.6-11.2-40.59-31.85-29.4-58.09,11.2-26.25,43.74,26.25,58.44,31.14,0,0,38.84-29.75,52.14-44.44,16.41-18.13-40.75-74.81-70.34-50.04-139.44,116.74-97.91,241.65,46.19,198.42,23.9-7.17,26.78,34.28,38.14,31.85,4.9-1.05,30.79-36.39,33.59-41.29,2.8-4.9-9.8-42.34-36.04-48.99ZM108.45,273.13c-4.34-4.34-11.37-4.34-15.71,0l-17.32,17.32c-4.34,4.34-4.34,11.37,0,15.71l17.32,17.32c4.34,4.34,11.37,4.34,15.71,0l17.32-17.32c4.34-4.34,4.34-11.37,0-15.71l-17.32-17.32ZM284.85,271.63c-13.38-.77-54.01-4.62-55.22,52.58-.04,2.03.94,3.95,2.61,5.09,3.44,2.35,7.33.25,9.2-3.48,11.76-23.49,30.03-30.61,42.26-37.22,3.19-1.73,6.75-2.46,6.75-6.1v-4.89c0-3.16-2.45-5.8-5.61-5.98Z"/>
      <path class="cls-1" d="M445.53,487.53c-2.8,4.9-28.7,40.24-33.59,41.29-11.37,2.44-14.25-39.01-38.14-31.85-9.81,2.94-19.12,5.08-27.95,6.52-14.76,16.37-35.3,37.77-49.03,46.34-92.62,57.77-107.26-51.97-107.26-51.97,0,0-13.67,26.36-28.05,40.3-127.1,123.16-212.85-188.95,10.5-189.9v15.86s-49.23,11.43-60.19,72.09c-23.13,127.93,73.02,61.79,73.02,22.86,0-26.13-5.6-217.43-5.6-217.43,0,0,23.56-24.03,28.7-28.93,5.13-4.9,17.73-4.43,17.73,27.06v200.63c0,58.64,66.37,100.3,109.13,64.54-111.43,11.03-133.07-101-7.18-206.4,29.59-24.77,86.75,31.91,70.34,50.04-13.3,14.7-52.14,44.44-52.14,44.44-14.7-4.9-47.24-57.39-58.44-31.14-11.2,26.25,9.8,46.89,29.4,58.09,19.6,11.2,73.14.7,79.44-13.3,6.3-14,34.64-80.14,34.64-80.14l15.08,7.53-36.43,104.45c26.25,6.65,38.84,44.09,36.04,48.99ZM144.17,105.99c-180.02,70.8-40.7-96.38-1.87-11.43,0,0,29.86-33.83,33.13-40.13,3.27-6.3-19.13-38.26-47.13-27.06C37.95,63.51-37.74,232.42,102.64,174.58c46.43-19.13,55.29-17.5,68.12-5.13,0,0-21.21,33.83-89.35,48.06-21.23,4.43-24.73-16.33-19.6-23.1h-15.4s-15.4,45.49-16.1,60.66c-2.63,56.91,153.22-8.69,178.94-75.12,19.6-50.63-9.33-95.88-65.09-73.95ZM404.24,197.85l36.43-104.45-15.08-7.53s-28.35,66.14-34.64,80.14c-6.3,14-59.84,24.5-79.44,13.3-19.6-11.2-40.59-31.85-29.4-58.09,11.2-26.25,43.74,26.25,58.44,31.14,0,0,38.84-29.75,52.14-44.44,16.41-18.13-40.75-74.81-70.34-50.04-139.44,116.74-97.91,241.65,46.19,198.42,23.9-7.17,26.78,34.28,38.14,31.85,4.9-1.05,30.79-36.39,33.59-41.29,2.8-4.9-9.8-42.34-36.04-48.99ZM120.71,285.39c-4.34-4.34-11.37-4.34-15.71,0l-17.32,17.32c-4.34,4.34-4.34,11.37,0,15.71l17.32,17.32c4.34,4.34,11.37,4.34,15.71,0l17.32-17.32c4.34-4.34,4.34-11.37,0-15.71l-17.32-17.32ZM297.11,283.89c-13.38-.77-54.01-4.62-55.22,52.58-.04,2.03.94,3.95,2.61,5.09,3.44,2.35,7.33.25,9.2-3.48,11.76-23.49,30.03-30.61,42.26-37.22,3.19-1.73,6.75-2.46,6.75-6.1v-4.89c0-3.16-2.45-5.8-5.61-5.98Z"/>
      <path class="cls-1" d="M457.79,499.78c-2.8,4.9-28.7,40.24-33.59,41.29-11.37,2.44-14.25-39.01-38.14-31.85-9.81,2.94-19.12,5.08-27.95,6.52-14.76,16.37-35.3,37.77-49.03,46.34-92.62,57.77-107.26-51.97-107.26-51.97,0,0-13.67,26.36-28.05,40.3-127.1,123.16-212.85-188.95,10.5-189.9v15.86s-49.23,11.43-60.19,72.09c-23.13,127.93,73.02,61.79,73.02,22.86,0-26.13-5.6-217.43-5.6-217.43,0,0,23.56-24.03,28.7-28.93,5.13-4.9,17.73-4.43,17.73,27.06v200.63c0,58.64,66.37,100.3,109.13,64.54-111.43,11.03-133.07-101-7.18-206.4,29.59-24.77,86.75,31.91,70.34,50.04-13.3,14.7-52.14,44.44-52.14,44.44-14.7-4.9-47.24-57.39-58.44-31.14-11.2,26.25,9.8,46.89,29.4,58.09,19.6,11.2,73.14.7,79.44-13.3,6.3-14,34.64-80.14,34.64-80.14l15.08,7.53-36.43,104.45c26.25,6.65,38.84,44.09,36.04,48.99ZM156.43,118.25c-180.02,70.8-40.7-96.38-1.87-11.43,0,0,29.86-33.83,33.13-40.13,3.27-6.3-19.13-38.26-47.13-27.06C50.21,75.77-25.48,244.68,114.9,186.84c46.43-19.13,55.29-17.5,68.12-5.13,0,0-21.21,33.83-89.35,48.06-21.23,4.43-24.73-16.33-19.6-23.1h-15.4s-15.4,45.49-16.1,60.66c-2.63,56.91,153.22-8.69,178.94-75.12,19.6-50.63-9.33-95.88-65.09-73.95ZM416.49,210.11l36.43-104.45-15.08-7.53s-28.35,66.14-34.64,80.14c-6.3,14-59.84,24.5-79.44,13.3s-40.59-31.85-29.4-58.09c11.2-26.25,43.74,26.25,58.44,31.14,0,0,38.84-29.75,52.14-44.44,16.41-18.13-40.75-74.81-70.34-50.04-139.44,116.74-97.91,241.65,46.19,198.42,23.9-7.17,26.78,34.28,38.14,31.85,4.9-1.05,30.79-36.39,33.59-41.29,2.8-4.9-9.8-42.34-36.04-48.99ZM132.96,297.64c-4.34-4.34-11.37-4.34-15.71,0l-17.32,17.32c-4.34,4.34-4.34,11.37,0,15.71l17.32,17.32c4.34,4.34,11.37,4.34,15.71,0l17.32-17.32c4.34-4.34,4.34-11.37,0-15.71l-17.32-17.32ZM309.36,296.14c-13.38-.77-54.01-4.62-55.22,52.58-.04,2.03.94,3.95,2.61,5.09,3.44,2.35,7.33.25,9.2-3.48,11.76-23.49,30.03-30.61,42.26-37.22,3.19-1.73,6.75-2.46,6.75-6.1v-4.89c0-3.16-2.45-5.8-5.61-5.98Z"/>
      <path class="cls-1" d="M470.04,512.04c-2.8,4.9-28.7,40.24-33.59,41.29-11.37,2.44-14.25-39.01-38.14-31.85-9.81,2.94-19.12,5.08-27.95,6.52-14.76,16.37-35.3,37.77-49.03,46.34-92.62,57.77-107.26-51.97-107.26-51.97,0,0-13.67,26.36-28.05,40.3-127.1,123.16-212.85-188.95,10.5-189.9v15.86s-49.23,11.43-60.19,72.09c-23.13,127.93,73.02,61.79,73.02,22.86,0-26.13-5.6-217.43-5.6-217.43,0,0,23.56-24.03,28.7-28.93s17.73-4.43,17.73,27.06v200.63c0,58.64,66.37,100.3,109.13,64.54-111.43,11.03-133.07-101-7.18-206.4,29.59-24.77,86.75,31.91,70.34,50.04-13.3,14.7-52.14,44.44-52.14,44.44-14.7-4.9-47.24-57.39-58.44-31.14-11.2,26.25,9.8,46.89,29.4,58.09,19.6,11.2,73.14.7,79.44-13.3,6.3-14,34.64-80.14,34.64-80.14l15.08,7.53-36.43,104.45c26.25,6.65,38.84,44.09,36.04,48.99ZM168.68,130.5c-180.02,70.8-40.7-96.38-1.87-11.43,0,0,29.86-33.83,33.13-40.13,3.27-6.3-19.13-38.26-47.13-27.06C62.46,88.02-13.23,256.94,127.16,199.09c46.43-19.13,55.29-17.5,68.12-5.13,0,0-21.21,33.83-89.35,48.06-21.23,4.43-24.73-16.33-19.6-23.1h-15.4s-15.4,45.49-16.1,60.66c-2.63,56.91,153.22-8.69,178.94-75.12,19.6-50.63-9.33-95.88-65.09-73.95ZM428.75,222.36l36.43-104.45-15.08-7.53s-28.35,66.14-34.64,80.14c-6.3,14-59.84,24.5-79.44,13.3s-40.59-31.85-29.4-58.09c11.2-26.25,43.74,26.25,58.44,31.14,0,0,38.84-29.75,52.14-44.44,16.41-18.13-40.75-74.81-70.34-50.04-139.44,116.74-97.91,241.65,46.19,198.42,23.9-7.17,26.78,34.28,38.14,31.85,4.9-1.05,30.79-36.39,33.59-41.29,2.8-4.9-9.8-42.34-36.04-48.99ZM145.22,309.9c-4.34-4.34-11.37-4.34-15.71,0l-17.32,17.32c-4.34,4.34-4.34,11.37,0,15.71l17.32,17.32c4.34,4.34,11.37,4.34,15.71,0l17.32-17.32c4.34-4.34,4.34-11.37,0-15.71l-17.32-17.32ZM321.62,308.4c-13.38-.77-54.01-4.62-55.22,52.58-.04,2.03.94,3.95,2.61,5.09,3.44,2.35,7.33.25,9.2-3.48,11.76-23.49,30.03-30.61,42.26-37.22,3.19-1.73,6.75-2.46,6.75-6.1v-4.89c0-3.16-2.45-5.8-5.61-5.98Z"/>
      <path class="cls-1" d="M482.3,524.29c-2.8,4.9-28.7,40.24-33.59,41.29-11.37,2.44-14.25-39.01-38.14-31.85-9.81,2.94-19.12,5.08-27.95,6.52-14.76,16.37-35.3,37.77-49.03,46.34-92.62,57.77-107.26-51.97-107.26-51.97,0,0-13.67,26.36-28.05,40.3-127.1,123.16-212.85-188.95,10.5-189.9v15.86s-49.23,11.43-60.19,72.09c-23.13,127.93,73.02,61.79,73.02,22.86,0-26.13-5.6-217.43-5.6-217.43,0,0,23.56-24.03,28.7-28.93,5.13-4.9,17.73-4.43,17.73,27.06v200.63c0,58.64,66.37,100.3,109.13,64.54-111.43,11.03-133.07-101-7.18-206.4,29.59-24.77,86.75,31.91,70.34,50.04-13.3,14.7-52.14,44.44-52.14,44.44-14.7-4.9-47.24-57.39-58.44-31.14-11.2,26.25,9.8,46.89,29.4,58.09,19.6,11.2,73.14.7,79.44-13.3,6.3-14,34.64-80.14,34.64-80.14l15.08,7.53-36.43,104.45c26.25,6.65,38.84,44.09,36.04,48.99ZM180.94,142.76c-180.02,70.8-40.7-96.38-1.87-11.43,0,0,29.86-33.83,33.13-40.13,3.27-6.3-19.13-38.26-47.13-27.06C74.72,100.28-.97,269.19,139.41,211.35c46.43-19.13,55.29-17.5,68.12-5.13,0,0-21.21,33.83-89.35,48.06-21.23,4.43-24.73-16.33-19.6-23.1h-15.4s-15.4,45.49-16.1,60.66c-2.63,56.91,153.22-8.69,178.94-75.12,19.6-50.63-9.33-95.88-65.09-73.95ZM441,234.62l36.43-104.45-15.08-7.53s-28.35,66.14-34.64,80.14c-6.3,14-59.84,24.5-79.44,13.3-19.6-11.2-40.59-31.85-29.4-58.09,11.2-26.25,43.74,26.25,58.44,31.14,0,0,38.84-29.75,52.14-44.44,16.41-18.13-40.75-74.81-70.34-50.04-139.44,116.74-97.91,241.65,46.19,198.42,23.9-7.17,26.78,34.28,38.14,31.85,4.9-1.05,30.79-36.39,33.59-41.29,2.8-4.9-9.8-42.34-36.04-48.99ZM157.47,322.15c-4.34-4.34-11.37-4.34-15.71,0l-17.32,17.32c-4.34,4.34-4.34,11.37,0,15.71l17.32,17.32c4.34,4.34,11.37,4.34,15.71,0l17.32-17.32c4.34-4.34,4.34-11.37,0-15.71l-17.32-17.32ZM333.87,320.65c-13.38-.77-54.01-4.62-55.22,52.58-.04,2.03.94,3.95,2.61,5.09,3.44,2.35,7.33.25,9.2-3.48,11.76-23.49,30.03-30.61,42.26-37.22,3.19-1.73,6.75-2.46,6.75-6.1v-4.89c0-3.16-2.45-5.8-5.61-5.98Z"/>
    </g>
  </g>
</svg>